<?xml version="1.0" encoding="utf-8"?>
<!-- Generator: Adobe Illustrator 28.2.0, SVG Export Plug-In . SVG Version: 6.00 Build 0)  -->
<svg version="1.1" id="Laag_1" xmlns="http://www.w3.org/2000/svg" xmlns:xlink="http://www.w3.org/1999/xlink" x="0px" y="0px"
	 viewBox="0 0 438.4 438.6" style="enable-background:new 0 0 438.4 438.6;" xml:space="preserve">
<style type="text/css">
	.st0{fill:#FFFFFF;}
</style>
<g>
	<path class="st0" d="M371,61.3c11.8-12.2,23.6-24.4,35.4-36.6c4.7-4.9,10.3-7.3,17.1-5.8c9.3,2,14.9,9.2,14.9,19.1
		c0,31.4,0,62.9,0,94.3c0,10.5,0,21,0,31.4c-0.1,11.3-7.9,19.2-19.1,19.2c-42.1,0-84.2,0-126.3,0c-8.4,0-14.3-3.9-17.6-11.5
		c-3.3-7.6-1.4-14.3,4.3-20c12.8-12.8,25.7-25.6,39-39c-3-2.6-5.8-5-8.7-7.4C225.9,37.5,97.2,84.4,76.2,190.4
		c-15.7,79.3,35.5,157.3,114.6,172c56.6,10.5,104.2-7,141.6-51.3c6.3-7.5,11.2-7.9,18.2-1c11.7,11.8,23.5,23.6,35.2,35.4
		c5.5,5.6,5.6,10.1,0.5,16c-35.2,40.6-79.2,65.6-132.3,74.2C142.3,453.9,35,383.2,6.7,273.1C-21.1,164.4,40,49.1,145.8,13.2
		c81.4-27.6,155-11.4,220.3,43.9C367.4,58.2,368.7,59.3,371,61.3z"/>
</g>
</svg>
